<?xml version="1.0" encoding="utf-8"?>
<!-- Generator: Adobe Illustrator 19.0.0, SVG Export Plug-In . SVG Version: 6.00 Build 0)  -->
<!DOCTYPE svg PUBLIC "-//W3C//DTD SVG 1.1//EN" "http://www.w3.org/Graphics/SVG/1.1/DTD/svg11.dtd">
<svg version="1.1" id="Layer_1" xmlns="http://www.w3.org/2000/svg" xmlns:xlink="http://www.w3.org/1999/xlink" x="0px" y="0px"
	 viewBox="0 0 612 792" enable-background="new 0 0 612 792" xml:space="preserve">
<g id="XMLID_1_">
	<path id="XMLID_33_" fill="none" stroke="#000000" stroke-width="0.25" stroke-miterlimit="10" d="M384,260.1
		c9.2-8.6,17.9-18.3,28.2-26.1c21.6-16.3,40.9-11.9,54.6,11.6c8.6,14.8,14,30.5,11.3,47.9c-1.9,12.2-9.5,16.9-20.6,11.3
		c-10.1-5.1-19-12.4-29.1-19.2c-8.9,7.5-14.6,18.6-19.3,30.1c-9.4,23.2-12.9,47.6-14.4,72.4c-2.3,36.7-8.7,72.3-27.2,104.8
		c-25,43.8-70.4,66.1-120.4,59.6c-20.8-2.7-40.8-7.4-58.7-18.8c-36.6-23.3-52.3-71.4-35.9-111.5c2.7-6.7,7.2-13.2,12.3-18.3
		c17.7-17.6,38-15.8,53.5,3.8c9.7,12.4,5.6,30.4-8.9,35.1c0.3-3.1,0.7-5.8,0.7-8.5c0.1-8-5.5-14.5-12-14.2c-5.8,0.2-11,7.7-9,15.2
		c1.4,5.4,4,11.3,8,15.1c16.7,15.8,44.6,10.2,51.9-11.4c4.3-12.8,6.3-27.1,5.8-40.6c-1.3-39.6-10.1-78-25.2-114.7
		c-4.3-10.3-11.4-19.7-18-28.9c-3.5-4.9-7.8-5.8-12.7,0.5c-4.6,6-10.7,11.2-17,15.4c-9.5,6.2-19,4-26.1-4.9c-8.2-10.3-8.9-21.9-5-34
		c5.2-16.2,15.2-29.2,28.8-39.3c13.5-10.1,28.6-10.8,41,0.6c10.5,9.8,18.7,22.2,27.2,33.9c3.7,5.1,5.8,11.3,8.8,17.3
		c5.1-12.3,9.2-24.6,15.2-36c5.2-10,11.5-19.9,19.1-28.2c12.8-14.2,29.1-15.8,45.5-5.6c20,12.4,31.4,31.5,39,52.9
		C379.2,238.3,381.3,249.8,384,260.1z"/>
	<path id="XMLID_26_" fill="none" stroke="#000000" stroke-width="0.25" stroke-miterlimit="10" d="M335.7,274.3
		c0.2,4.3-1,8.3-2.9,12c-1.7,3.4-4.5,6-8.2,7.4c-3.2,1.2-6.4,1.3-9.7,0.6c-3.6-0.8-6-3.1-7.7-6.3c-1.5-2.8-2.3-5.8-2.4-8.9
		c-0.2-4.3,0-8.6,1.7-12.6c1.6-3.6,3.9-6.5,7.2-8.5c2.3-1.3,4.8-2.2,7.4-2.4c3-0.3,5.8,0.9,8.2,2.8c3.8,3,5.5,7.1,6.1,11.7
		C335.6,271.5,335.6,272.9,335.7,274.3z"/>
	<path id="XMLID_25_" fill="none" stroke="#000000" stroke-width="0.25" stroke-miterlimit="10" d="M304.2,238.6
		c-2.9,0-5-1.3-6.6-3.3c-2.5-3.1-3.3-6.7-2.3-10.6c1-3.8,4.1-7.4,8.8-7.3c2.8,0,5,1.6,6.5,3.8c2.7,3.8,3.3,8,1.2,12.4
		c-0.2,0.4-0.6,1.1-0.9,1.1c-0.8,0-0.9-0.8-1-1.4c-0.4-1.4-0.8-2.6-2.2-3.4c-1.4-0.8-2.7-0.5-3.6,0.8c-1.7,2.4-1,5.4,1.7,6.5
		c0.2,0.1,0.5,0.5,0.5,0.7c0,0.2-0.4,0.5-0.6,0.5C305.1,238.6,304.5,238.6,304.2,238.6z"/>
	<path id="XMLID_24_" fill="none" stroke="#000000" stroke-width="0.25" stroke-miterlimit="10" d="M327.3,235
		c-0.4-0.7-0.8-1.4-1.2-2.2c-1.7-3.6-1.9-7.3-0.2-10.9c1.7-3.5,4.8-5.2,8.4-4.6c2.2,0.4,3.9,1.7,5.4,3.4c1.8,2.1,2.4,4.7,2.7,7.4
		c0.4,3.9-2.5,8.7-6.2,9.9c-1,0.3-2.1,0.2-3.1,0.2c-0.2,0-0.6-0.3-0.7-0.5c0-0.2,0.2-0.6,0.4-0.8c1.6-1.1,2.2-2.6,1.9-4.5
		c-0.3-1.4-1.6-2.9-2.7-3.1c-1.8-0.3-2.3,0.3-3.3,2.4c-0.3,0.6-0.3,1.3-0.5,2c-0.1,0.4-0.4,0.8-0.6,1.2
		C327.6,234.9,327.4,235,327.3,235z"/>
</g>
</svg>
